# xmcd
#
# Track frame offsets:
#	150
#	900
#	17253
#	37685
#	55408
#	56158
#	74365
#	92663
#	109718
#	129995
#	148473
#	172718
#	196338
#	209740
#	221960
#
# Disc length: 3214 seconds
#
# Revision: 0
# Processed by: cddbd v1.5.2PL0 Copyright (c) Steve Scherf et al.
# Submitted via: EasyCDDAExtractor 7.1.2.1
#
DISCID=d10c8c0f
DTITLE=Various Artist - TM Century - HitDisc 179C
DYEAR=1996
DGENRE=Pop
TTITLE0=blank - blank
TTITLE1=Dolly Parton - Peace Train
TTITLE2=Collin Raye - White Christmas
TTITLE3=Shenandoah - I'll Be Home For Christmas
TTITLE4=blank - blank
TTITLE5=Boyz II Men - You're Not Alone [Radio Edit]
TTITLE6=David Sanborn - Rikke [Edit]
TTITLE7=Blackstreet - Never Gonna Let You Go [Edit]
TTITLE8=Braxtons - Only Love
TTITLE9=Sweetback feat. Amel Larrieux - You Will Rise [LP Radio Edit]
TTITLE10=Vincent Lars - Christmas Time Is Here
TTITLE11=Vibraphonic - In The Bleak Midwinter
TTITLE12=Jim Brickman - Joy To The World
TTITLE13=Hollywind 'N' Wood with John Pagano - It's Christmas Time Again
TTITLE14=Russ Freeman - God Rest Ye Merry Gentlemen
EXTD=
EXTT0=
EXTT1=
EXTT2=
EXTT3=
EXTT4=
EXTT5=
EXTT6=
EXTT7=
EXTT8=
EXTT9=
EXTT10=
EXTT11=
EXTT12=
EXTT13=
EXTT14=
PLAYORDER=
